<svg xmlns="http://www.w3.org/2000/svg" width="136" height="146" viewBox="0 0 136 146">
    <path fill="none" fill-rule="evenodd" stroke="#FFF" d="M132.691 23.953c-2.062-2.064-4.508-3.096-7.332-3.096h-10.428v-7.822c0-3.584-1.277-6.653-3.83-9.206-2.554-2.553-5.621-3.83-9.207-3.83h-5.213c-3.586 0-6.654 1.277-9.207 3.83-2.554 2.553-3.83 5.622-3.83 9.206v7.822H52.359v-7.822c0-3.584-1.277-6.653-3.83-9.206s-5.622-3.83-9.207-3.83h-5.214c-3.585 0-6.654 1.277-9.207 3.83-2.553 2.553-3.83 5.622-3.83 9.206v7.822H10.643c-2.825 0-5.269 1.032-7.333 3.096S.214 28.462.214 31.286v104.287c0 2.823 1.032 5.267 3.096 7.332 2.064 2.064 4.508 3.096 7.333 3.096h114.714c2.824 0 5.27-1.032 7.332-3.096 2.064-2.064 3.096-4.509 3.096-7.332V31.286c0-2.825-1.031-5.269-3.094-7.333zM34.107 135.572H10.643v-23.465h23.464v23.465zm0-28.679H10.643v-26.07h23.464v26.07zm0-31.286H10.643V52.143h23.464v23.464zm-1.832-37.274c-.516-.516-.774-1.126-.774-1.833V13.036c0-.706.258-1.317.774-1.833s1.126-.774 1.833-.774h5.214c.706 0 1.317.258 1.833.774s.774 1.127.774 1.833V36.5c0 .707-.259 1.317-.774 1.833-.516.516-1.126.774-1.833.774h-5.214c-.706 0-1.317-.258-1.833-.774zm33.118 97.239H39.321v-23.465h26.072v23.465zm0-28.679H39.321v-26.07h26.072v26.07zm0-31.286H39.321V52.143h26.072v23.464zm31.287 59.965H70.608v-23.465H96.68v23.465zm0-28.679H70.608v-26.07H96.68v26.07zm0-31.286H70.608V52.143H96.68v23.464zm-1.834-37.274c-.515-.516-.772-1.126-.772-1.833V13.036c0-.706.257-1.317.772-1.833.516-.516 1.127-.774 1.834-.774h5.213c.707 0 1.318.258 1.834.774s.773 1.127.773 1.833V36.5c0 .707-.258 1.317-.773 1.833s-1.127.774-1.834.774H96.68c-.707 0-1.319-.258-1.834-.774zm30.511 97.239h-23.465v-23.465h23.465v23.465zm0-28.679h-23.465v-26.07h23.465v26.07zm0-31.286h-23.465V52.143h23.465v23.464z"/>
</svg>
